<svg xmlns="http://www.w3.org/2000/svg" xmlns:xlink="http://www.w3.org/1999/xlink" width="300" zoomAndPan="magnify" viewBox="0 0 224.87999 187.499995" height="250" preserveAspectRatio="xMidYMid meet" version="1.2"><defs><clipPath id="ea02c88fee"><path d="M 67.5625 59 L 97 59 L 97 66 L 67.5625 66 Z M 67.5625 59 "/></clipPath><clipPath id="2f32cb62a3"><path d="M 68 51 L 146.851562 51 L 146.851562 97 L 68 97 Z M 68 51 "/></clipPath></defs><g id="36c7431ab1"><g clip-rule="nonzero" clip-path="url(#ea02c88fee)"><path style=" stroke:none;fill-rule:nonzero;fill:#ffffff;fill-opacity:1;" d="M 67.582031 59.207031 L 90.839844 65.078125 C 91.222656 64.230469 91.648438 63.382812 92.125 62.558594 L 96.753906 63.375 L 83.066406 59.144531 C 83.820312 59.710938 87.839844 62.175781 87.839844 62.175781 C 87.714844 62.28125 87.589844 62.390625 87.464844 62.496094 C 87.464844 62.496094 67.582031 59.207031 67.582031 59.207031 Z M 67.582031 59.207031 "/></g><g clip-rule="nonzero" clip-path="url(#2f32cb62a3)"><path style=" stroke:none;fill-rule:nonzero;fill:#ffffff;fill-opacity:1;" d="M 145.304688 77.019531 C 145.242188 76.980469 145.179688 76.945312 145.113281 76.914062 C 145.070312 76.785156 145.019531 76.679688 144.980469 76.601562 C 144.65625 75.988281 144.117188 75.609375 143.445312 75.375 C 144.425781 72.613281 144.679688 69.773438 144.070312 66.988281 C 141.527344 55.378906 124.992188 49.140625 107.136719 53.054688 C 105.175781 53.484375 103.277344 54.019531 101.460938 54.644531 C 101.359375 54.46875 101.257812 54.289062 101.15625 54.113281 C 100.621094 53.160156 99.75 52.613281 98.765625 52.613281 C 96.695312 52.613281 95.050781 54.859375 92.773438 58.28125 C 92.710938 58.378906 92.644531 58.476562 92.582031 58.574219 L 81.242188 58.0625 L 93.394531 60.570312 C 95.054688 58.222656 98.25 52.601562 99.589844 54.992188 C 101.90625 59.117188 108.03125 68.511719 112.382812 63.941406 C 113.746094 62.511719 114.882812 54.878906 118.226562 58.609375 C 119.4375 59.964844 119.328125 61.660156 121.148438 65.265625 C 118.945312 65.617188 117.503906 67.03125 116.890625 67.765625 C 116.882812 67.765625 116.875 67.765625 116.867188 67.765625 C 116.488281 67.828125 116.230469 68.1875 116.292969 68.570312 C 116.355469 68.949219 116.714844 69.207031 117.09375 69.144531 C 117.476562 69.082031 117.734375 68.722656 117.671875 68.339844 C 117.660156 68.285156 117.644531 68.234375 117.621094 68.183594 C 118.21875 67.484375 119.535156 66.253906 121.550781 66.050781 C 121.839844 66.597656 122.140625 67.15625 122.457031 67.714844 C 120.957031 68.195312 119.898438 69.140625 119.320312 69.777344 C 119.277344 69.777344 119.230469 69.78125 119.183594 69.789062 C 118.804688 69.851562 118.546875 70.210938 118.609375 70.589844 C 118.671875 70.96875 119.03125 71.226562 119.410156 71.164062 C 119.792969 71.101562 120.050781 70.742188 119.984375 70.363281 C 119.980469 70.339844 119.972656 70.316406 119.96875 70.296875 C 120.496094 69.707031 121.46875 68.835938 122.882812 68.445312 C 123.1875 68.964844 123.507812 69.480469 123.835938 69.984375 C 122.871094 70.445312 122.144531 71.070312 121.667969 71.566406 C 121.628906 71.566406 121.589844 71.566406 121.546875 71.574219 C 121.167969 71.636719 120.910156 71.996094 120.972656 72.375 C 121.035156 72.757812 121.394531 73.011719 121.777344 72.949219 C 122.15625 72.886719 122.414062 72.527344 122.351562 72.148438 C 122.347656 72.121094 122.335938 72.09375 122.328125 72.066406 C 122.761719 71.617188 123.417969 71.0625 124.292969 70.671875 C 124.652344 71.203125 125.023438 71.714844 125.40625 72.207031 C 124.550781 72.667969 123.910156 73.25 123.488281 73.699219 C 123.429688 73.695312 123.375 73.695312 123.316406 73.707031 C 122.9375 73.769531 122.679688 74.128906 122.742188 74.507812 C 122.804688 74.890625 123.164062 75.148438 123.542969 75.082031 C 123.925781 75.019531 124.183594 74.660156 124.117188 74.28125 C 124.117188 74.269531 124.113281 74.257812 124.109375 74.242188 C 124.496094 73.820312 125.105469 73.269531 125.929688 72.851562 C 126.359375 73.367188 126.800781 73.851562 127.253906 74.292969 C 126.640625 74.675781 126.15625 75.105469 125.804688 75.46875 C 125.757812 75.464844 125.710938 75.46875 125.660156 75.476562 C 125.28125 75.539062 125.023438 75.898438 125.085938 76.277344 C 125.148438 76.660156 125.507812 76.917969 125.890625 76.855469 C 126.269531 76.792969 126.527344 76.433594 126.464844 76.050781 C 126.460938 76.03125 126.453125 76.007812 126.445312 75.988281 C 126.785156 75.636719 127.265625 75.21875 127.878906 74.867188 C 129.101562 75.929688 130.390625 76.65625 131.714844 76.847656 C 135.40625 77.375 144.816406 75.820312 143.265625 78.078125 C 142.828125 78.71875 141.300781 79.769531 139.453125 80.878906 C 136.667969 82.554688 133.90625 83.625 131.253906 84.0625 C 123.941406 85.273438 118.085938 81.703125 112.425781 78.25 C 108.171875 75.65625 104.152344 73.203125 99.761719 72.925781 C 94.039062 72.570312 90.789062 71.523438 90.101562 69.824219 L 89.550781 68.464844 C 89.558594 68.441406 89.566406 68.414062 89.574219 68.386719 L 97.75 69.929688 L 70.464844 60.902344 L 83.226562 66.976562 C 82.6875 67.6875 82.195312 68.414062 81.753906 69.148438 L 68.964844 67.035156 L 88.652344 72.640625 C 88.726562 71.90625 88.863281 71.101562 89.066406 70.242188 C 89.816406 72.09375 92.425781 73.585938 99.691406 74.042969 C 111.476562 74.78125 121.542969 92.9375 140.03125 81.835938 C 142.300781 80.472656 143.664062 79.398438 144.34375 78.539062 C 145.773438 79.441406 145.15625 81.082031 140.394531 84.257812 C 130.5 90.847656 122.742188 88.433594 115.796875 84.914062 L 95.496094 79.617188 L 114.566406 82.265625 L 107.484375 80.523438 C 104.886719 79.292969 102.332031 78.40625 99.734375 78.363281 C 93.386719 78.265625 90.539062 77.214844 89.359375 75.742188 L 94.128906 76.507812 L 72.0625 68.976562 C 72.0625 68.976562 79.8125 73.429688 79.8125 73.429688 C 79.019531 75.980469 78.851562 78.589844 79.414062 81.148438 C 81.957031 92.757812 98.492188 98.996094 116.34375 95.082031 C 121.214844 94.015625 125.679688 92.304688 129.546875 90.144531 C 133.515625 89.851562 137.40625 88.40625 141.390625 85.75 C 145.265625 83.167969 146.835938 81.371094 146.816406 79.546875 C 146.808594 78.957031 146.605469 77.84375 145.304688 77.019531 Z M 145.304688 77.019531 "/></g><g style="fill:#ffffff;fill-opacity:1;"><g transform="translate(48.248535, 127.055295)"><path style="stroke:none" d="M 6.015625 -3.09375 L 4.859375 0 L 0 0 L 7.671875 -18.53125 L 11.734375 -18.53125 L 19.40625 0 L 14.546875 0 L 13.390625 -3.09375 Z M 9.71875 -12.796875 L 7.53125 -7.0625 L 11.890625 -7.0625 Z M 9.71875 -12.796875 "/></g></g><g style="fill:#ffffff;fill-opacity:1;"><g transform="translate(65.23334, 127.055295)"><path style="stroke:none" d="M 6.171875 -5.953125 L 6.171875 0 L 1.765625 0 L 1.765625 -18.53125 L 9.265625 -18.53125 C 10.828125 -18.53125 12.132812 -18.269531 13.1875 -17.75 C 14.25 -17.226562 15.035156 -16.5 15.546875 -15.5625 C 16.066406 -14.632812 16.328125 -13.5625 16.328125 -12.34375 C 16.328125 -11 15.988281 -9.785156 15.3125 -8.703125 C 14.644531 -7.617188 13.71875 -6.84375 12.53125 -6.375 L 17.203125 0 L 12.125 0 L 8 -5.953125 Z M 9.234375 -9.921875 C 9.992188 -9.921875 10.628906 -10.128906 11.140625 -10.546875 C 11.660156 -10.960938 11.921875 -11.523438 11.921875 -12.234375 C 11.921875 -13.015625 11.671875 -13.59375 11.171875 -13.96875 C 10.671875 -14.351562 10.023438 -14.546875 9.234375 -14.546875 L 6.171875 -14.546875 L 6.171875 -9.921875 Z M 9.234375 -9.921875 "/></g></g><g style="fill:#ffffff;fill-opacity:1;"><g transform="translate(80.902024, 127.055295)"><path style="stroke:none" d="M 10.8125 -18.96875 C 12.613281 -18.96875 14.273438 -18.53125 15.796875 -17.65625 C 17.316406 -16.78125 18.519531 -15.601562 19.40625 -14.125 C 20.289062 -12.644531 20.734375 -11.023438 20.734375 -9.265625 C 20.734375 -7.515625 20.289062 -5.894531 19.40625 -4.40625 C 18.519531 -2.914062 17.3125 -1.734375 15.78125 -0.859375 C 14.257812 0.00390625 12.601562 0.4375 10.8125 0.4375 C 9.007812 0.4375 7.347656 0.00390625 5.828125 -0.859375 C 4.316406 -1.734375 3.113281 -2.914062 2.21875 -4.40625 C 1.332031 -5.894531 0.890625 -7.515625 0.890625 -9.265625 C 0.890625 -11.023438 1.332031 -12.644531 2.21875 -14.125 C 3.113281 -15.601562 4.316406 -16.78125 5.828125 -17.65625 C 7.347656 -18.53125 9.007812 -18.96875 10.8125 -18.96875 Z M 10.8125 -3.515625 C 11.8125 -3.515625 12.734375 -3.769531 13.578125 -4.28125 C 14.421875 -4.800781 15.085938 -5.503906 15.578125 -6.390625 C 16.078125 -7.273438 16.328125 -8.234375 16.328125 -9.265625 C 16.328125 -10.296875 16.078125 -11.25 15.578125 -12.125 C 15.085938 -13.007812 14.421875 -13.707031 13.578125 -14.21875 C 12.734375 -14.738281 11.8125 -15 10.8125 -15 C 9.820312 -15 8.898438 -14.738281 8.046875 -14.21875 C 7.203125 -13.707031 6.53125 -13.015625 6.03125 -12.140625 C 5.539062 -11.265625 5.296875 -10.304688 5.296875 -9.265625 C 5.296875 -8.222656 5.539062 -7.257812 6.03125 -6.375 C 6.53125 -5.5 7.203125 -4.800781 8.046875 -4.28125 C 8.898438 -3.769531 9.820312 -3.515625 10.8125 -3.515625 Z M 10.8125 -3.515625 "/></g></g><g style="fill:#ffffff;fill-opacity:1;"><g transform="translate(100.092224, 127.055295)"><path style="stroke:none" d="M 23.15625 -18.53125 L 28.015625 -18.53125 L 21.296875 0 L 17.3125 0 L 14.125 -10.21875 L 10.921875 0 L 6.953125 0 L 0.21875 -18.53125 L 5.0625 -18.53125 L 8.828125 -7.015625 L 12.125 -18.53125 L 16.09375 -18.53125 L 19.40625 -7.015625 Z M 23.15625 -18.53125 "/></g></g><g style="fill:#ffffff;fill-opacity:1;"><g transform="translate(125.898611, 127.055295)"><path style="stroke:none" d="M 23.15625 -18.53125 L 28.015625 -18.53125 L 21.296875 0 L 17.3125 0 L 14.125 -10.21875 L 10.921875 0 L 6.953125 0 L 0.21875 -18.53125 L 5.0625 -18.53125 L 8.828125 -7.015625 L 12.125 -18.53125 L 16.09375 -18.53125 L 19.40625 -7.015625 Z M 23.15625 -18.53125 "/></g></g><g style="fill:#ffffff;fill-opacity:1;"><g transform="translate(151.704991, 127.055295)"><path style="stroke:none" d="M 6.015625 -3.09375 L 4.859375 0 L 0 0 L 7.671875 -18.53125 L 11.734375 -18.53125 L 19.40625 0 L 14.546875 0 L 13.390625 -3.09375 Z M 9.71875 -12.796875 L 7.53125 -7.0625 L 11.890625 -7.0625 Z M 9.71875 -12.796875 "/></g></g><g style="fill:#ffffff;fill-opacity:1;"><g transform="translate(168.689796, 127.055295)"><path style="stroke:none" d="M 1.765625 -18.53125 L 6.171875 -18.53125 L 6.171875 0 L 1.765625 0 Z M 1.765625 -18.53125 "/></g></g><g style="fill:#ffffff;fill-opacity:1;"><g transform="translate(72.180126, 137.073216)"><path style="stroke:none" d="M 2.859375 0 L 3.203125 -1.734375 L 1.546875 -1.734375 L 1.203125 0 L 0.203125 0 L 1.0625 -4.328125 L 2.0625 -4.328125 L 1.734375 -2.65625 L 3.390625 -2.65625 L 3.71875 -4.328125 L 4.71875 -4.328125 L 3.859375 0 Z M 2.859375 0 "/></g></g><g style="fill:#ffffff;fill-opacity:1;"><g transform="translate(77.478517, 137.073216)"><path style="stroke:none" d="M -0.265625 0 L 2.3125 -4.328125 L 3.28125 -4.328125 L 4.125 0 L 3.140625 0 L 3.015625 -0.75 L 1.296875 -0.75 L 0.84375 0 Z M 1.6875 -1.515625 L 2.90625 -1.515625 L 2.609375 -3.09375 Z M 1.6875 -1.515625 "/></g></g><g style="fill:#ffffff;fill-opacity:1;"><g transform="translate(82.579777, 137.073216)"><path style="stroke:none" d="M 0.203125 0 L 1.0625 -4.328125 L 1.859375 -4.328125 L 3.265625 -1.640625 L 3.40625 -2.359375 L 3.796875 -4.328125 L 4.765625 -4.328125 L 3.90625 0 L 3.109375 0 L 1.703125 -2.65625 L 1.59375 -2.046875 L 1.171875 0 Z M 0.203125 0 "/></g></g><g style="fill:#ffffff;fill-opacity:1;"><g transform="translate(87.927454, 137.073216)"><path style="stroke:none" d="M 2.3125 0.09375 C 1.84375 0.09375 1.445312 -0.00390625 1.125 -0.203125 C 0.8125 -0.410156 0.585938 -0.6875 0.453125 -1.03125 C 0.316406 -1.382812 0.289062 -1.785156 0.375 -2.234375 C 0.46875 -2.660156 0.640625 -3.035156 0.890625 -3.359375 C 1.140625 -3.691406 1.453125 -3.945312 1.828125 -4.125 C 2.203125 -4.3125 2.609375 -4.40625 3.046875 -4.40625 C 3.503906 -4.40625 3.894531 -4.304688 4.21875 -4.109375 C 4.539062 -3.910156 4.769531 -3.632812 4.90625 -3.28125 C 5.039062 -2.9375 5.0625 -2.539062 4.96875 -2.09375 C 4.882812 -1.65625 4.710938 -1.273438 4.453125 -0.953125 C 4.203125 -0.628906 3.890625 -0.375 3.515625 -0.1875 C 3.148438 0 2.75 0.09375 2.3125 0.09375 Z M 1.375 -2.140625 C 1.320312 -1.890625 1.328125 -1.664062 1.390625 -1.46875 C 1.460938 -1.269531 1.582031 -1.113281 1.75 -1 C 1.925781 -0.894531 2.140625 -0.84375 2.390625 -0.84375 C 2.648438 -0.84375 2.890625 -0.898438 3.109375 -1.015625 C 3.328125 -1.128906 3.515625 -1.285156 3.671875 -1.484375 C 3.828125 -1.691406 3.929688 -1.921875 3.984375 -2.171875 C 4.035156 -2.429688 4.023438 -2.65625 3.953125 -2.84375 C 3.878906 -3.039062 3.757812 -3.191406 3.59375 -3.296875 C 3.425781 -3.410156 3.21875 -3.46875 2.96875 -3.46875 C 2.707031 -3.46875 2.460938 -3.410156 2.234375 -3.296875 C 2.015625 -3.191406 1.828125 -3.035156 1.671875 -2.828125 C 1.523438 -2.628906 1.425781 -2.398438 1.375 -2.140625 Z M 1.375 -2.140625 "/></g></g><g style="fill:#ffffff;fill-opacity:1;"><g transform="translate(93.663232, 137.073216)"><path style="stroke:none" d="M 0.203125 0 L 1.0625 -4.328125 L 2.0625 -4.328125 L 1.203125 0 Z M 0.203125 0 "/></g></g><g style="fill:#ffffff;fill-opacity:1;"><g transform="translate(96.30035, 137.073216)"><path style="stroke:none" d=""/></g></g><g style="fill:#ffffff;fill-opacity:1;"><g transform="translate(98.352236, 137.073216)"><path style="stroke:none" d="M 1.75 0.09375 C 1.382812 0.09375 1.078125 0.0351562 0.828125 -0.078125 C 0.578125 -0.203125 0.398438 -0.375 0.296875 -0.59375 C 0.191406 -0.8125 0.171875 -1.070312 0.234375 -1.375 L 1.171875 -1.375 C 1.140625 -1.164062 1.175781 -1.003906 1.28125 -0.890625 C 1.394531 -0.773438 1.570312 -0.71875 1.8125 -0.71875 C 2.03125 -0.71875 2.207031 -0.757812 2.34375 -0.84375 C 2.476562 -0.925781 2.5625 -1.035156 2.59375 -1.171875 C 2.625 -1.328125 2.582031 -1.453125 2.46875 -1.546875 C 2.363281 -1.648438 2.164062 -1.734375 1.875 -1.796875 C 1.40625 -1.898438 1.054688 -2.066406 0.828125 -2.296875 C 0.609375 -2.535156 0.535156 -2.847656 0.609375 -3.234375 C 0.679688 -3.585938 0.867188 -3.867188 1.171875 -4.078125 C 1.484375 -4.296875 1.882812 -4.40625 2.375 -4.40625 C 2.90625 -4.40625 3.300781 -4.273438 3.5625 -4.015625 C 3.832031 -3.765625 3.9375 -3.425781 3.875 -3 L 2.921875 -3 C 2.953125 -3.175781 2.914062 -3.320312 2.8125 -3.4375 C 2.71875 -3.550781 2.550781 -3.609375 2.3125 -3.609375 C 2.101562 -3.609375 1.929688 -3.566406 1.796875 -3.484375 C 1.671875 -3.398438 1.597656 -3.296875 1.578125 -3.171875 C 1.546875 -3.015625 1.582031 -2.882812 1.6875 -2.78125 C 1.800781 -2.6875 2.007812 -2.609375 2.3125 -2.546875 C 2.800781 -2.429688 3.148438 -2.253906 3.359375 -2.015625 C 3.566406 -1.773438 3.640625 -1.472656 3.578125 -1.109375 C 3.503906 -0.742188 3.3125 -0.453125 3 -0.234375 C 2.6875 -0.015625 2.269531 0.09375 1.75 0.09375 Z M 1.75 0.09375 "/></g></g><g style="fill:#ffffff;fill-opacity:1;"><g transform="translate(102.899065, 137.073216)"><path style="stroke:none" d="M 2.03125 0.09375 C 1.644531 0.09375 1.328125 0.015625 1.078125 -0.140625 C 0.828125 -0.296875 0.648438 -0.515625 0.546875 -0.796875 C 0.453125 -1.085938 0.441406 -1.429688 0.515625 -1.828125 L 1.015625 -4.328125 L 2.015625 -4.328125 L 1.515625 -1.828125 C 1.390625 -1.171875 1.585938 -0.84375 2.109375 -0.84375 C 2.671875 -0.84375 3.015625 -1.179688 3.140625 -1.859375 L 3.640625 -4.328125 L 4.640625 -4.328125 L 4.125 -1.734375 C 4.007812 -1.148438 3.769531 -0.695312 3.40625 -0.375 C 3.050781 -0.0625 2.59375 0.09375 2.03125 0.09375 Z M 2.03125 0.09375 "/></g></g><g style="fill:#ffffff;fill-opacity:1;"><g transform="translate(108.07425, 137.073216)"><path style="stroke:none" d="M 0.203125 0 L 1.0625 -4.328125 L 2.734375 -4.328125 C 3.066406 -4.328125 3.347656 -4.253906 3.578125 -4.109375 C 3.816406 -3.960938 3.984375 -3.765625 4.078125 -3.515625 C 4.179688 -3.265625 4.203125 -2.976562 4.140625 -2.65625 C 4.046875 -2.1875 3.828125 -1.828125 3.484375 -1.578125 C 3.140625 -1.328125 2.695312 -1.203125 2.15625 -1.203125 L 1.4375 -1.203125 L 1.203125 0 Z M 1.59375 -2.046875 L 2.203125 -2.046875 C 2.460938 -2.046875 2.675781 -2.109375 2.84375 -2.234375 C 3.007812 -2.367188 3.113281 -2.546875 3.15625 -2.765625 C 3.195312 -2.984375 3.164062 -3.15625 3.0625 -3.28125 C 2.957031 -3.40625 2.769531 -3.46875 2.5 -3.46875 L 1.875 -3.46875 Z M 1.59375 -2.046875 "/></g></g><g style="fill:#ffffff;fill-opacity:1;"><g transform="translate(112.781247, 137.073216)"><path style="stroke:none" d="M 0.203125 0 L 1.0625 -4.328125 L 2.734375 -4.328125 C 3.066406 -4.328125 3.347656 -4.253906 3.578125 -4.109375 C 3.816406 -3.960938 3.984375 -3.765625 4.078125 -3.515625 C 4.179688 -3.265625 4.203125 -2.976562 4.140625 -2.65625 C 4.046875 -2.1875 3.828125 -1.828125 3.484375 -1.578125 C 3.140625 -1.328125 2.695312 -1.203125 2.15625 -1.203125 L 1.4375 -1.203125 L 1.203125 0 Z M 1.59375 -2.046875 L 2.203125 -2.046875 C 2.460938 -2.046875 2.675781 -2.109375 2.84375 -2.234375 C 3.007812 -2.367188 3.113281 -2.546875 3.15625 -2.765625 C 3.195312 -2.984375 3.164062 -3.15625 3.0625 -3.28125 C 2.957031 -3.40625 2.769531 -3.46875 2.5 -3.46875 L 1.875 -3.46875 Z M 1.59375 -2.046875 "/></g></g><g style="fill:#ffffff;fill-opacity:1;"><g transform="translate(117.488244, 137.073216)"><path style="stroke:none" d="M 0.203125 0 L 1.0625 -4.328125 L 3.90625 -4.328125 L 3.734375 -3.5 L 1.890625 -3.5 L 1.703125 -2.59375 L 3.390625 -2.59375 L 3.234375 -1.78125 L 1.546875 -1.78125 L 1.359375 -0.828125 L 3.265625 -0.828125 L 3.109375 0 Z M 0.203125 0 "/></g></g><g style="fill:#ffffff;fill-opacity:1;"><g transform="translate(121.83178, 137.073216)"><path style="stroke:none" d="M 0.203125 0 L 1.0625 -4.328125 L 2.84375 -4.328125 C 3.1875 -4.328125 3.46875 -4.257812 3.6875 -4.125 C 3.914062 -4 4.078125 -3.816406 4.171875 -3.578125 C 4.265625 -3.347656 4.273438 -3.078125 4.203125 -2.765625 C 4.140625 -2.453125 4.015625 -2.1875 3.828125 -1.96875 C 3.648438 -1.75 3.421875 -1.585938 3.140625 -1.484375 L 3.734375 0 L 2.625 0 L 2.109375 -1.34375 L 1.453125 -1.34375 L 1.1875 0 Z M 1.609375 -2.171875 L 2.3125 -2.171875 C 2.570312 -2.171875 2.773438 -2.226562 2.921875 -2.34375 C 3.078125 -2.46875 3.175781 -2.632812 3.21875 -2.84375 C 3.269531 -3.039062 3.242188 -3.195312 3.140625 -3.3125 C 3.035156 -3.425781 2.851562 -3.484375 2.59375 -3.484375 L 1.875 -3.484375 Z M 1.609375 -2.171875 "/></g></g><g style="fill:#ffffff;fill-opacity:1;"><g transform="translate(126.76671, 137.073216)"><path style="stroke:none" d=""/></g></g><g style="fill:#ffffff;fill-opacity:1;"><g transform="translate(128.818596, 137.073216)"><path style="stroke:none" d="M 1.75 0.09375 C 1.382812 0.09375 1.078125 0.0351562 0.828125 -0.078125 C 0.578125 -0.203125 0.398438 -0.375 0.296875 -0.59375 C 0.191406 -0.8125 0.171875 -1.070312 0.234375 -1.375 L 1.171875 -1.375 C 1.140625 -1.164062 1.175781 -1.003906 1.28125 -0.890625 C 1.394531 -0.773438 1.570312 -0.71875 1.8125 -0.71875 C 2.03125 -0.71875 2.207031 -0.757812 2.34375 -0.84375 C 2.476562 -0.925781 2.5625 -1.035156 2.59375 -1.171875 C 2.625 -1.328125 2.582031 -1.453125 2.46875 -1.546875 C 2.363281 -1.648438 2.164062 -1.734375 1.875 -1.796875 C 1.40625 -1.898438 1.054688 -2.066406 0.828125 -2.296875 C 0.609375 -2.535156 0.535156 -2.847656 0.609375 -3.234375 C 0.679688 -3.585938 0.867188 -3.867188 1.171875 -4.078125 C 1.484375 -4.296875 1.882812 -4.40625 2.375 -4.40625 C 2.90625 -4.40625 3.300781 -4.273438 3.5625 -4.015625 C 3.832031 -3.765625 3.9375 -3.425781 3.875 -3 L 2.921875 -3 C 2.953125 -3.175781 2.914062 -3.320312 2.8125 -3.4375 C 2.71875 -3.550781 2.550781 -3.609375 2.3125 -3.609375 C 2.101562 -3.609375 1.929688 -3.566406 1.796875 -3.484375 C 1.671875 -3.398438 1.597656 -3.296875 1.578125 -3.171875 C 1.546875 -3.015625 1.582031 -2.882812 1.6875 -2.78125 C 1.800781 -2.6875 2.007812 -2.609375 2.3125 -2.546875 C 2.800781 -2.429688 3.148438 -2.253906 3.359375 -2.015625 C 3.566406 -1.773438 3.640625 -1.472656 3.578125 -1.109375 C 3.503906 -0.742188 3.3125 -0.453125 3 -0.234375 C 2.6875 -0.015625 2.269531 0.09375 1.75 0.09375 Z M 1.75 0.09375 "/></g></g><g style="fill:#ffffff;fill-opacity:1;"><g transform="translate(133.365424, 137.073216)"><path style="stroke:none" d="M 2.859375 0 L 3.203125 -1.734375 L 1.546875 -1.734375 L 1.203125 0 L 0.203125 0 L 1.0625 -4.328125 L 2.0625 -4.328125 L 1.734375 -2.65625 L 3.390625 -2.65625 L 3.71875 -4.328125 L 4.71875 -4.328125 L 3.859375 0 Z M 2.859375 0 "/></g></g><g style="fill:#ffffff;fill-opacity:1;"><g transform="translate(138.663815, 137.073216)"><path style="stroke:none" d="M 2.3125 0.09375 C 1.84375 0.09375 1.445312 -0.00390625 1.125 -0.203125 C 0.8125 -0.410156 0.585938 -0.6875 0.453125 -1.03125 C 0.316406 -1.382812 0.289062 -1.785156 0.375 -2.234375 C 0.46875 -2.660156 0.640625 -3.035156 0.890625 -3.359375 C 1.140625 -3.691406 1.453125 -3.945312 1.828125 -4.125 C 2.203125 -4.3125 2.609375 -4.40625 3.046875 -4.40625 C 3.503906 -4.40625 3.894531 -4.304688 4.21875 -4.109375 C 4.539062 -3.910156 4.769531 -3.632812 4.90625 -3.28125 C 5.039062 -2.9375 5.0625 -2.539062 4.96875 -2.09375 C 4.882812 -1.65625 4.710938 -1.273438 4.453125 -0.953125 C 4.203125 -0.628906 3.890625 -0.375 3.515625 -0.1875 C 3.148438 0 2.75 0.09375 2.3125 0.09375 Z M 1.375 -2.140625 C 1.320312 -1.890625 1.328125 -1.664062 1.390625 -1.46875 C 1.460938 -1.269531 1.582031 -1.113281 1.75 -1 C 1.925781 -0.894531 2.140625 -0.84375 2.390625 -0.84375 C 2.648438 -0.84375 2.890625 -0.898438 3.109375 -1.015625 C 3.328125 -1.128906 3.515625 -1.285156 3.671875 -1.484375 C 3.828125 -1.691406 3.929688 -1.921875 3.984375 -2.171875 C 4.035156 -2.429688 4.023438 -2.65625 3.953125 -2.84375 C 3.878906 -3.039062 3.757812 -3.191406 3.59375 -3.296875 C 3.425781 -3.410156 3.21875 -3.46875 2.96875 -3.46875 C 2.707031 -3.46875 2.460938 -3.410156 2.234375 -3.296875 C 2.015625 -3.191406 1.828125 -3.035156 1.671875 -2.828125 C 1.523438 -2.628906 1.425781 -2.398438 1.375 -2.140625 Z M 1.375 -2.140625 "/></g></g><g style="fill:#ffffff;fill-opacity:1;"><g transform="translate(144.399593, 137.073216)"><path style="stroke:none" d="M 0.203125 0 L 1.0625 -4.328125 L 3.90625 -4.328125 L 3.734375 -3.5 L 1.890625 -3.5 L 1.703125 -2.59375 L 3.390625 -2.59375 L 3.234375 -1.78125 L 1.546875 -1.78125 L 1.359375 -0.828125 L 3.265625 -0.828125 L 3.109375 0 Z M 0.203125 0 "/></g></g><g style="fill:#ffffff;fill-opacity:1;"><g transform="translate(148.743129, 137.073216)"><path style="stroke:none" d="M 1.75 0.09375 C 1.382812 0.09375 1.078125 0.0351562 0.828125 -0.078125 C 0.578125 -0.203125 0.398438 -0.375 0.296875 -0.59375 C 0.191406 -0.8125 0.171875 -1.070312 0.234375 -1.375 L 1.171875 -1.375 C 1.140625 -1.164062 1.175781 -1.003906 1.28125 -0.890625 C 1.394531 -0.773438 1.570312 -0.71875 1.8125 -0.71875 C 2.03125 -0.71875 2.207031 -0.757812 2.34375 -0.84375 C 2.476562 -0.925781 2.5625 -1.035156 2.59375 -1.171875 C 2.625 -1.328125 2.582031 -1.453125 2.46875 -1.546875 C 2.363281 -1.648438 2.164062 -1.734375 1.875 -1.796875 C 1.40625 -1.898438 1.054688 -2.066406 0.828125 -2.296875 C 0.609375 -2.535156 0.535156 -2.847656 0.609375 -3.234375 C 0.679688 -3.585938 0.867188 -3.867188 1.171875 -4.078125 C 1.484375 -4.296875 1.882812 -4.40625 2.375 -4.40625 C 2.90625 -4.40625 3.300781 -4.273438 3.5625 -4.015625 C 3.832031 -3.765625 3.9375 -3.425781 3.875 -3 L 2.921875 -3 C 2.953125 -3.175781 2.914062 -3.320312 2.8125 -3.4375 C 2.71875 -3.550781 2.550781 -3.609375 2.3125 -3.609375 C 2.101562 -3.609375 1.929688 -3.566406 1.796875 -3.484375 C 1.671875 -3.398438 1.597656 -3.296875 1.578125 -3.171875 C 1.546875 -3.015625 1.582031 -2.882812 1.6875 -2.78125 C 1.800781 -2.6875 2.007812 -2.609375 2.3125 -2.546875 C 2.800781 -2.429688 3.148438 -2.253906 3.359375 -2.015625 C 3.566406 -1.773438 3.640625 -1.472656 3.578125 -1.109375 C 3.503906 -0.742188 3.3125 -0.453125 3 -0.234375 C 2.6875 -0.015625 2.269531 0.09375 1.75 0.09375 Z M 1.75 0.09375 "/></g></g></g></svg>